<svg xmlns="http://www.w3.org/2000/svg" width="375" viewBox="0 0 375 75" height="75" version="1.0"><defs><clipPath id="a"><path d="M 2.25 9.441406 L 56.140625 9.441406 L 56.140625 63.335938 L 2.25 63.335938 Z M 2.25 9.441406"/></clipPath><clipPath id="b"><path d="M 9.136719 30.109375 L 48.414062 30.109375 L 48.414062 44.726562 L 9.136719 44.726562 Z M 9.136719 30.109375"/></clipPath><clipPath id="c"><path d="M 10 30.109375 L 46 30.109375 L 46 44 L 10 44 Z M 10 30.109375"/></clipPath><clipPath id="d"><path d="M 4.757812 14.207031 L 53.507812 14.207031 L 53.507812 29.957031 L 4.757812 29.957031 Z M 4.757812 14.207031"/></clipPath></defs><g fill="#FFF"><g><g><path d="M 7.546875 -18.703125 L 0.140625 -18.703125 L 0.140625 -24.109375 L 21.734375 -24.109375 L 21.734375 -18.703125 L 14.359375 -18.703125 L 14.359375 0 L 7.546875 0 Z M 7.546875 -18.703125" transform="translate(65.014 46.385)"/></g></g></g><g fill="#FFF"><g><g><path d="M 25.34375 -24.109375 L 25.34375 0 L 18.53125 0 L 18.53125 -9.40625 L 9.234375 -9.40625 L 9.234375 0 L 2.40625 0 L 2.40625 -24.109375 L 9.234375 -24.109375 L 9.234375 -15.046875 L 18.53125 -15.046875 L 18.53125 -24.109375 Z M 25.34375 -24.109375" transform="translate(86.874 46.385)"/></g></g></g><g fill="#FFF"><g><g><path d="M 21.765625 -5.265625 L 21.765625 0 L 2.40625 0 L 2.40625 -24.109375 L 21.3125 -24.109375 L 21.3125 -18.84375 L 9.15625 -18.84375 L 9.15625 -14.78125 L 19.875 -14.78125 L 19.875 -9.671875 L 9.15625 -9.671875 L 9.15625 -5.265625 Z M 21.765625 -5.265625" transform="translate(114.62 46.385)"/></g></g></g><g fill="#FFF"><g><g><path d="M 40.21875 -24.109375 L 32.40625 0 L 25.109375 0 L 20.484375 -14.671875 L 15.671875 0 L 8.375 0 L 0.546875 -24.109375 L 7.578125 -24.109375 L 12.4375 -8.71875 L 17.53125 -24.109375 L 23.796875 -24.109375 L 28.65625 -8.578125 L 33.71875 -24.109375 Z M 40.21875 -24.109375" transform="translate(137.754 46.385)"/></g></g></g><g fill="#FFF"><g><g><path d="M 14.5625 0.484375 C 12.019531 0.484375 9.734375 -0.0507812 7.703125 -1.125 C 5.671875 -2.207031 4.070312 -3.703125 2.90625 -5.609375 C 1.75 -7.515625 1.171875 -9.660156 1.171875 -12.046875 C 1.171875 -14.441406 1.75 -16.585938 2.90625 -18.484375 C 4.070312 -20.390625 5.671875 -21.882812 7.703125 -22.96875 C 9.734375 -24.050781 12.019531 -24.59375 14.5625 -24.59375 C 17.113281 -24.59375 19.40625 -24.050781 21.4375 -22.96875 C 23.46875 -21.882812 25.0625 -20.390625 26.21875 -18.484375 C 27.382812 -16.585938 27.96875 -14.441406 27.96875 -12.046875 C 27.96875 -9.660156 27.382812 -7.515625 26.21875 -5.609375 C 25.0625 -3.703125 23.46875 -2.207031 21.4375 -1.125 C 19.40625 -0.0507812 17.113281 0.484375 14.5625 0.484375 Z M 14.5625 -5.171875 C 15.78125 -5.171875 16.882812 -5.457031 17.875 -6.03125 C 18.863281 -6.601562 19.644531 -7.410156 20.21875 -8.453125 C 20.789062 -9.492188 21.078125 -10.691406 21.078125 -12.046875 C 21.078125 -13.398438 20.789062 -14.597656 20.21875 -15.640625 C 19.644531 -16.691406 18.863281 -17.503906 17.875 -18.078125 C 16.882812 -18.648438 15.78125 -18.9375 14.5625 -18.9375 C 13.34375 -18.9375 12.238281 -18.648438 11.25 -18.078125 C 10.269531 -17.503906 9.492188 -16.691406 8.921875 -15.640625 C 8.347656 -14.597656 8.0625 -13.398438 8.0625 -12.046875 C 8.0625 -10.691406 8.347656 -9.492188 8.921875 -8.453125 C 9.492188 -7.410156 10.269531 -6.601562 11.25 -6.03125 C 12.238281 -5.457031 13.34375 -5.171875 14.5625 -5.171875 Z M 14.5625 -5.171875" transform="translate(178.513 46.385)"/></g></g></g><g fill="#FFF"><g><g><path d="M 2.40625 -24.109375 L 9.234375 -24.109375 L 9.234375 -5.40625 L 20.734375 -5.40625 L 20.734375 0 L 2.40625 0 Z M 2.40625 -24.109375" transform="translate(207.636 46.385)"/></g></g></g><g fill="#FFF"><g><g><path d="M 9.234375 -18.84375 L 9.234375 -13.53125 L 19.875 -13.53125 L 19.875 -8.265625 L 9.234375 -8.265625 L 9.234375 0 L 2.40625 0 L 2.40625 -24.109375 L 21.3125 -24.109375 L 21.3125 -18.84375 Z M 9.234375 -18.84375" transform="translate(228.635 46.385)"/></g></g></g><g fill="#FFF"><g><g><path d="M 14.421875 0.484375 C 11.898438 0.484375 9.632812 -0.046875 7.625 -1.109375 C 5.613281 -2.179688 4.035156 -3.671875 2.890625 -5.578125 C 1.742188 -7.484375 1.171875 -9.640625 1.171875 -12.046875 C 1.171875 -14.460938 1.742188 -16.625 2.890625 -18.53125 C 4.035156 -20.4375 5.613281 -21.921875 7.625 -22.984375 C 9.632812 -24.054688 11.898438 -24.59375 14.421875 -24.59375 C 16.628906 -24.59375 18.613281 -24.203125 20.375 -23.421875 C 22.144531 -22.640625 23.617188 -21.515625 24.796875 -20.046875 L 20.453125 -16.109375 C 18.890625 -17.992188 17 -18.9375 14.78125 -18.9375 C 13.46875 -18.9375 12.300781 -18.648438 11.28125 -18.078125 C 10.257812 -17.503906 9.46875 -16.691406 8.90625 -15.640625 C 8.34375 -14.597656 8.0625 -13.398438 8.0625 -12.046875 C 8.0625 -10.691406 8.34375 -9.492188 8.90625 -8.453125 C 9.46875 -7.410156 10.257812 -6.601562 11.28125 -6.03125 C 12.300781 -5.457031 13.46875 -5.171875 14.78125 -5.171875 C 17 -5.171875 18.890625 -6.109375 20.453125 -7.984375 L 24.796875 -4.0625 C 23.617188 -2.59375 22.144531 -1.46875 20.375 -0.6875 C 18.613281 0.09375 16.628906 0.484375 14.421875 0.484375 Z M 14.421875 0.484375" transform="translate(250.736 46.385)"/></g></g></g><g fill="#FFF"><g><g><path d="M 2.40625 -24.109375 L 9.234375 -24.109375 L 9.234375 -5.40625 L 20.734375 -5.40625 L 20.734375 0 L 2.40625 0 Z M 2.40625 -24.109375" transform="translate(276.141 46.385)"/></g></g></g><g fill="#FFF"><g><g><path d="M 13.53125 0.484375 C 9.945312 0.484375 7.160156 -0.488281 5.171875 -2.4375 C 3.191406 -4.394531 2.203125 -7.164062 2.203125 -10.75 L 2.203125 -24.109375 L 9.015625 -24.109375 L 9.015625 -10.953125 C 9.015625 -7.097656 10.546875 -5.171875 13.609375 -5.171875 C 16.640625 -5.171875 18.15625 -7.097656 18.15625 -10.953125 L 18.15625 -24.109375 L 24.859375 -24.109375 L 24.859375 -10.75 C 24.859375 -7.164062 23.863281 -4.394531 21.875 -2.4375 C 19.894531 -0.488281 17.113281 0.484375 13.53125 0.484375 Z M 13.53125 0.484375" transform="translate(297.14 46.385)"/></g></g></g><g fill="#FFF"><g><g><path d="M 20.9375 -12.5625 C 22.3125 -12.082031 23.390625 -11.332031 24.171875 -10.3125 C 24.953125 -9.289062 25.34375 -8.054688 25.34375 -6.609375 C 25.34375 -4.492188 24.492188 -2.863281 22.796875 -1.71875 C 21.097656 -0.570312 18.640625 0 15.421875 0 L 2.40625 0 L 2.40625 -24.109375 L 14.734375 -24.109375 C 17.816406 -24.109375 20.160156 -23.539062 21.765625 -22.40625 C 23.367188 -21.269531 24.171875 -19.734375 24.171875 -17.796875 C 24.171875 -16.648438 23.890625 -15.625 23.328125 -14.71875 C 22.765625 -13.8125 21.96875 -13.09375 20.9375 -12.5625 Z M 9.15625 -19.1875 L 9.15625 -14.53125 L 13.84375 -14.53125 C 16.132812 -14.53125 17.28125 -15.3125 17.28125 -16.875 C 17.28125 -18.414062 16.132812 -19.1875 13.84375 -19.1875 Z M 14.875 -4.921875 C 17.257812 -4.921875 18.453125 -5.738281 18.453125 -7.375 C 18.453125 -9 17.257812 -9.8125 14.875 -9.8125 L 9.15625 -9.8125 L 9.15625 -4.921875 Z M 14.875 -4.921875" transform="translate(324.198 46.385)"/></g></g></g><g fill="#FFF"><g><g><path d="M 7.546875 -18.703125 L 0.140625 -18.703125 L 0.140625 -24.109375 L 21.734375 -24.109375 L 21.734375 -18.703125 L 14.359375 -18.703125 L 14.359375 0 L 7.546875 0 Z M 7.546875 -18.703125" transform="translate(65.014 46.385)"/></g></g></g><g fill="#FFF"><g><g><path d="M 25.34375 -24.109375 L 25.34375 0 L 18.53125 0 L 18.53125 -9.40625 L 9.234375 -9.40625 L 9.234375 0 L 2.40625 0 L 2.40625 -24.109375 L 9.234375 -24.109375 L 9.234375 -15.046875 L 18.53125 -15.046875 L 18.53125 -24.109375 Z M 25.34375 -24.109375" transform="translate(86.874 46.385)"/></g></g></g><g fill="#FFF"><g><g><path d="M 21.765625 -5.265625 L 21.765625 0 L 2.40625 0 L 2.40625 -24.109375 L 21.3125 -24.109375 L 21.3125 -18.84375 L 9.15625 -18.84375 L 9.15625 -14.78125 L 19.875 -14.78125 L 19.875 -9.671875 L 9.15625 -9.671875 L 9.15625 -5.265625 Z M 21.765625 -5.265625" transform="translate(114.62 46.385)"/></g></g></g><g fill="#FFF"><g><g><path d="M 40.21875 -24.109375 L 32.40625 0 L 25.109375 0 L 20.484375 -14.671875 L 15.671875 0 L 8.375 0 L 0.546875 -24.109375 L 7.578125 -24.109375 L 12.4375 -8.71875 L 17.53125 -24.109375 L 23.796875 -24.109375 L 28.65625 -8.578125 L 33.71875 -24.109375 Z M 40.21875 -24.109375" transform="translate(137.754 46.385)"/></g></g></g><g fill="#FFF"><g><g><path d="M 14.5625 0.484375 C 12.019531 0.484375 9.734375 -0.0507812 7.703125 -1.125 C 5.671875 -2.207031 4.070312 -3.703125 2.90625 -5.609375 C 1.75 -7.515625 1.171875 -9.660156 1.171875 -12.046875 C 1.171875 -14.441406 1.75 -16.585938 2.90625 -18.484375 C 4.070312 -20.390625 5.671875 -21.882812 7.703125 -22.96875 C 9.734375 -24.050781 12.019531 -24.59375 14.5625 -24.59375 C 17.113281 -24.59375 19.40625 -24.050781 21.4375 -22.96875 C 23.46875 -21.882812 25.0625 -20.390625 26.21875 -18.484375 C 27.382812 -16.585938 27.96875 -14.441406 27.96875 -12.046875 C 27.96875 -9.660156 27.382812 -7.515625 26.21875 -5.609375 C 25.0625 -3.703125 23.46875 -2.207031 21.4375 -1.125 C 19.40625 -0.0507812 17.113281 0.484375 14.5625 0.484375 Z M 14.5625 -5.171875 C 15.78125 -5.171875 16.882812 -5.457031 17.875 -6.03125 C 18.863281 -6.601562 19.644531 -7.410156 20.21875 -8.453125 C 20.789062 -9.492188 21.078125 -10.691406 21.078125 -12.046875 C 21.078125 -13.398438 20.789062 -14.597656 20.21875 -15.640625 C 19.644531 -16.691406 18.863281 -17.503906 17.875 -18.078125 C 16.882812 -18.648438 15.78125 -18.9375 14.5625 -18.9375 C 13.34375 -18.9375 12.238281 -18.648438 11.25 -18.078125 C 10.269531 -17.503906 9.492188 -16.691406 8.921875 -15.640625 C 8.347656 -14.597656 8.0625 -13.398438 8.0625 -12.046875 C 8.0625 -10.691406 8.347656 -9.492188 8.921875 -8.453125 C 9.492188 -7.410156 10.269531 -6.601562 11.25 -6.03125 C 12.238281 -5.457031 13.34375 -5.171875 14.5625 -5.171875 Z M 14.5625 -5.171875" transform="translate(178.513 46.385)"/></g></g></g><g fill="#FFF"><g><g><path d="M 2.40625 -24.109375 L 9.234375 -24.109375 L 9.234375 -5.40625 L 20.734375 -5.40625 L 20.734375 0 L 2.40625 0 Z M 2.40625 -24.109375" transform="translate(207.636 46.385)"/></g></g></g><g fill="#FFF"><g><g><path d="M 9.234375 -18.84375 L 9.234375 -13.53125 L 19.875 -13.53125 L 19.875 -8.265625 L 9.234375 -8.265625 L 9.234375 0 L 2.40625 0 L 2.40625 -24.109375 L 21.3125 -24.109375 L 21.3125 -18.84375 Z M 9.234375 -18.84375" transform="translate(228.635 46.385)"/></g></g></g><g fill="#FFF"><g><g><path d="M 14.421875 0.484375 C 11.898438 0.484375 9.632812 -0.046875 7.625 -1.109375 C 5.613281 -2.179688 4.035156 -3.671875 2.890625 -5.578125 C 1.742188 -7.484375 1.171875 -9.640625 1.171875 -12.046875 C 1.171875 -14.460938 1.742188 -16.625 2.890625 -18.53125 C 4.035156 -20.4375 5.613281 -21.921875 7.625 -22.984375 C 9.632812 -24.054688 11.898438 -24.59375 14.421875 -24.59375 C 16.628906 -24.59375 18.613281 -24.203125 20.375 -23.421875 C 22.144531 -22.640625 23.617188 -21.515625 24.796875 -20.046875 L 20.453125 -16.109375 C 18.890625 -17.992188 17 -18.9375 14.78125 -18.9375 C 13.46875 -18.9375 12.300781 -18.648438 11.28125 -18.078125 C 10.257812 -17.503906 9.46875 -16.691406 8.90625 -15.640625 C 8.34375 -14.597656 8.0625 -13.398438 8.0625 -12.046875 C 8.0625 -10.691406 8.34375 -9.492188 8.90625 -8.453125 C 9.46875 -7.410156 10.257812 -6.601562 11.28125 -6.03125 C 12.300781 -5.457031 13.46875 -5.171875 14.78125 -5.171875 C 17 -5.171875 18.890625 -6.109375 20.453125 -7.984375 L 24.796875 -4.0625 C 23.617188 -2.59375 22.144531 -1.46875 20.375 -0.6875 C 18.613281 0.09375 16.628906 0.484375 14.421875 0.484375 Z M 14.421875 0.484375" transform="translate(250.736 46.385)"/></g></g></g><g fill="#FFF"><g><g><path d="M 2.40625 -24.109375 L 9.234375 -24.109375 L 9.234375 -5.40625 L 20.734375 -5.40625 L 20.734375 0 L 2.40625 0 Z M 2.40625 -24.109375" transform="translate(276.141 46.385)"/></g></g></g><g fill="#FFF"><g><g><path d="M 13.53125 0.484375 C 9.945312 0.484375 7.160156 -0.488281 5.171875 -2.4375 C 3.191406 -4.394531 2.203125 -7.164062 2.203125 -10.75 L 2.203125 -24.109375 L 9.015625 -24.109375 L 9.015625 -10.953125 C 9.015625 -7.097656 10.546875 -5.171875 13.609375 -5.171875 C 16.640625 -5.171875 18.15625 -7.097656 18.15625 -10.953125 L 18.15625 -24.109375 L 24.859375 -24.109375 L 24.859375 -10.75 C 24.859375 -7.164062 23.863281 -4.394531 21.875 -2.4375 C 19.894531 -0.488281 17.113281 0.484375 13.53125 0.484375 Z M 13.53125 0.484375" transform="translate(297.14 46.385)"/></g></g></g><g fill="#FFF"><g><g><path d="M 20.9375 -12.5625 C 22.3125 -12.082031 23.390625 -11.332031 24.171875 -10.3125 C 24.953125 -9.289062 25.34375 -8.054688 25.34375 -6.609375 C 25.34375 -4.492188 24.492188 -2.863281 22.796875 -1.71875 C 21.097656 -0.570312 18.640625 0 15.421875 0 L 2.40625 0 L 2.40625 -24.109375 L 14.734375 -24.109375 C 17.816406 -24.109375 20.160156 -23.539062 21.765625 -22.40625 C 23.367188 -21.269531 24.171875 -19.734375 24.171875 -17.796875 C 24.171875 -16.648438 23.890625 -15.625 23.328125 -14.71875 C 22.765625 -13.8125 21.96875 -13.09375 20.9375 -12.5625 Z M 9.15625 -19.1875 L 9.15625 -14.53125 L 13.84375 -14.53125 C 16.132812 -14.53125 17.28125 -15.3125 17.28125 -16.875 C 17.28125 -18.414062 16.132812 -19.1875 13.84375 -19.1875 Z M 14.875 -4.921875 C 17.257812 -4.921875 18.453125 -5.738281 18.453125 -7.375 C 18.453125 -9 17.257812 -9.8125 14.875 -9.8125 L 9.15625 -9.8125 L 9.15625 -4.921875 Z M 14.875 -4.921875" transform="translate(324.198 46.385)"/></g></g></g><g clip-path="url(#a)"><path fill="#FFF" d="M 50.707031 9.675781 C 50.546875 9.667969 50.382812 9.683594 50.21875 9.714844 C 46.289062 10.539062 42.105469 12.886719 39.332031 14.625 C 36.816406 13.070312 33.574219 12.007812 29.3125 12.007812 C 25.050781 12.007812 21.808594 13.070312 19.292969 14.625 C 16.519531 12.886719 12.339844 10.539062 8.40625 9.714844 C 7.082031 9.4375 5.886719 10.59375 5.992188 11.945312 C 6.371094 16.910156 7.890625 21.824219 10.671875 25.320312 C 8.058594 26.582031 4.273438 29.023438 2.554688 34.636719 C 2.554688 34.636719 5.816406 36.15625 6.824219 36.957031 C 4.738281 39.160156 3.648438 41.742188 3.648438 44.738281 C 10.292969 44.738281 15.363281 49.316406 17.652344 52.484375 C 19.589844 55.167969 21.578125 63.335938 29.3125 63.335938 C 37.046875 63.335938 39.035156 55.167969 40.972656 52.484375 C 43.261719 49.316406 48.332031 44.738281 54.976562 44.738281 C 54.976562 41.742188 53.882812 39.160156 51.796875 36.957031 C 52.804688 36.15625 56.070312 34.636719 56.070312 34.636719 C 54.351562 29.023438 50.566406 26.582031 47.953125 25.320312 C 50.734375 21.824219 52.253906 16.910156 52.632812 11.945312 C 52.722656 10.761719 51.824219 9.726562 50.707031 9.675781 Z M 18.851562 35.339844 L 24.648438 41.132812 C 23.90625 41.875 22.882812 42.335938 21.75 42.335938 C 19.484375 42.335938 17.648438 40.503906 17.648438 38.238281 C 17.648438 37.105469 18.109375 36.082031 18.851562 35.339844 Z M 39.773438 35.339844 C 40.515625 36.082031 40.976562 37.105469 40.976562 38.238281 C 40.976562 40.503906 39.140625 42.335938 36.875 42.335938 C 35.746094 42.335938 34.722656 41.875 33.980469 41.132812 Z M 29.304688 51.660156 L 29.316406 51.660156 C 30.253906 51.664062 31.058594 51.773438 31.726562 51.933594 C 33.136719 52.265625 33.644531 54.039062 32.605469 55.042969 C 31.886719 55.734375 30.839844 56.320312 29.320312 56.328125 L 29.304688 56.328125 C 27.789062 56.320312 26.738281 55.734375 26.019531 55.042969 C 24.980469 54.039062 25.492188 52.265625 26.894531 51.933594 C 27.558594 51.773438 28.371094 51.664062 29.304688 51.660156 Z M 29.304688 51.660156"/></g><g clip-path="url(#b)"><path d="M 48.386719 33.214844 C 48.390625 33.269531 48.363281 33.320312 48.3125 33.34375 C 48.050781 33.472656 47.363281 33.898438 47.332031 34.296875 C 47.328125 34.367188 47.269531 34.421875 47.203125 34.421875 C 47.199219 34.421875 47.195312 34.421875 47.191406 34.421875 C 47.183594 34.421875 47.171875 34.417969 47.164062 34.417969 C 47.164062 34.425781 47.164062 34.433594 47.164062 34.4375 C 47.164062 34.53125 47.164062 34.949219 47.136719 35.558594 C 47.136719 35.558594 47.136719 35.566406 47.136719 35.574219 C 47.039062 37.648438 46.609375 41.890625 44.644531 43.007812 C 43.980469 43.386719 43.175781 43.6875 42.300781 43.898438 C 40.105469 44.429688 37.457031 44.414062 35.417969 43.75 C 35.398438 43.808594 35.347656 43.84375 35.292969 43.84375 C 35.28125 43.84375 35.269531 43.84375 35.261719 43.839844 C 32.125 43.054688 30.65625 38.871094 30.59375 38.695312 C 30.570312 38.625 30.605469 38.550781 30.671875 38.523438 C 30.617188 38.378906 30.570312 38.253906 30.53125 38.148438 C 30.382812 37.789062 30.269531 37.273438 30.121094 36.765625 C 30.121094 36.765625 30.121094 36.765625 30.117188 36.769531 C 30.105469 36.769531 30.09375 36.773438 30.085938 36.773438 C 30.027344 36.773438 29.972656 36.730469 29.957031 36.671875 C 29.953125 36.65625 29.554688 35.148438 28.773438 35.148438 C 27.992188 35.148438 27.65625 36.453125 27.652344 36.464844 C 27.632812 36.539062 27.5625 36.582031 27.492188 36.5625 C 27.488281 36.5625 27.488281 36.5625 27.484375 36.558594 C 27.308594 37.132812 27.179688 37.742188 27.015625 38.148438 C 26.945312 38.320312 26.863281 38.558594 26.753906 38.835938 C 26.824219 38.863281 26.855469 38.941406 26.828125 39.007812 C 26.773438 39.15625 25.40625 42.609375 22.945312 43.582031 C 22.929688 43.589844 22.914062 43.589844 22.898438 43.589844 C 22.847656 43.589844 22.796875 43.558594 22.777344 43.507812 C 19.917969 44.730469 15.414062 44.441406 12.898438 43.007812 C 10.347656 41.558594 10.378906 34.84375 10.378906 34.4375 C 10.378906 34.410156 10.375 34.382812 10.363281 34.351562 C 10.097656 33.984375 9.21875 33.339844 9.210938 33.332031 C 9.171875 33.308594 9.152344 33.261719 9.15625 33.214844 L 9.320312 30.71875 C 9.324219 30.671875 9.347656 30.632812 9.386719 30.609375 C 9.71875 30.421875 12.296875 30.339844 12.8125 30.324219 L 17.621094 30.117188 C 17.695312 30.117188 17.753906 30.171875 17.757812 30.246094 C 17.757812 30.253906 17.757812 30.257812 17.757812 30.261719 C 21.261719 30.371094 23.207031 31.46875 24.726562 32.109375 C 25.257812 32.335938 25.839844 32.472656 26.390625 32.558594 C 26.398438 32.488281 26.464844 32.4375 26.535156 32.445312 C 26.5625 32.449219 29.160156 32.757812 31.34375 32.390625 C 31.414062 32.378906 31.484375 32.425781 31.496094 32.5 C 31.941406 32.414062 32.390625 32.289062 32.8125 32.109375 C 34.496094 31.398438 36.691406 30.136719 40.941406 30.261719 C 40.941406 30.257812 40.941406 30.253906 40.941406 30.246094 C 40.945312 30.171875 41.007812 30.113281 41.078125 30.117188 L 46.734375 30.421875 L 48.105469 30.59375 C 48.167969 30.601562 48.21875 30.652344 48.222656 30.71875 Z M 48.386719 33.214844"/><path d="M 27.394531 36.398438 C 27.410156 36.335938 27.789062 34.878906 28.769531 34.878906 L 28.769531 32.839844 C 27.503906 32.832031 26.519531 32.714844 26.503906 32.710938 C 26.433594 32.703125 26.378906 32.636719 26.390625 32.5625 C 26.390625 32.5625 26.390625 32.558594 26.390625 32.558594 C 25.839844 32.472656 25.261719 32.335938 24.730469 32.109375 C 23.207031 31.46875 21.261719 30.371094 17.757812 30.261719 C 17.753906 30.332031 17.699219 30.386719 17.632812 30.390625 L 12.820312 30.59375 C 11.652344 30.628906 9.964844 30.71875 9.578125 30.824219 L 9.425781 33.160156 C 9.636719 33.320312 10.351562 33.867188 10.59375 34.207031 C 10.636719 34.269531 10.621094 34.351562 10.5625 34.398438 C 10.539062 34.414062 10.511719 34.421875 10.484375 34.421875 C 10.445312 34.421875 10.402344 34.402344 10.378906 34.367188 C 10.375 34.359375 10.367188 34.355469 10.363281 34.347656 C 10.375 34.378906 10.378906 34.410156 10.378906 34.4375 C 10.378906 34.84375 10.347656 41.558594 12.898438 43.007812 C 15.414062 44.4375 19.917969 44.730469 22.777344 43.507812 C 22.773438 43.507812 22.773438 43.507812 22.773438 43.503906 C 22.746094 43.433594 22.78125 43.355469 22.851562 43.332031 C 25.203125 42.402344 26.570312 38.945312 26.582031 38.910156 C 26.609375 38.839844 26.6875 38.804688 26.753906 38.835938 C 26.863281 38.558594 26.945312 38.320312 27.015625 38.148438 C 27.179688 37.742188 27.308594 37.132812 27.484375 36.558594 C 27.417969 36.539062 27.378906 36.46875 27.394531 36.398438 Z M 14.773438 30.929688 C 12.570312 30.949219 10.875 32.386719 10.875 32.386719 C 10.550781 30.398438 14.773438 30.929688 14.773438 30.929688 Z M 12.679688 42.445312 C 11.636719 41.511719 11.722656 39.648438 11.679688 38.84375 C 11.679688 38.84375 12.242188 40.976562 13.433594 41.964844 C 14.628906 42.949219 16.792969 43.109375 16.792969 43.109375 C 16.792969 43.109375 13.71875 43.378906 12.679688 42.445312 Z M 24.644531 39.503906 C 23.769531 41.421875 20.910156 42.777344 17.792969 42.742188 C 16.683594 42.730469 15.792969 42.566406 15.074219 42.269531 C 13.769531 41.730469 13.035156 40.761719 12.597656 39.503906 C 12.453125 39.085938 12.332031 38.578125 12.253906 38.027344 C 11.972656 36.019531 12.226562 33.449219 13.605469 32.589844 C 14.941406 31.753906 17.558594 31.925781 20.007812 32.40625 C 20.773438 32.554688 21.523438 32.734375 22.210938 32.921875 C 25.101562 33.714844 25.554688 35.171875 25.554688 35.171875 C 25.582031 35.289062 25.601562 35.410156 25.613281 35.542969 C 25.710938 36.488281 25.414062 37.816406 24.644531 39.503906 Z M 47.070312 34.277344 C 47.109375 33.730469 47.855469 33.285156 48.117188 33.144531 L 47.964844 30.847656 L 46.714844 30.691406 L 41.066406 30.390625 C 41 30.386719 40.945312 30.332031 40.941406 30.265625 C 36.691406 30.136719 34.496094 31.402344 32.816406 32.109375 C 32.394531 32.289062 31.941406 32.414062 31.496094 32.5 C 31.496094 32.5 31.496094 32.5 31.496094 32.503906 C 31.507812 32.574219 31.460938 32.644531 31.386719 32.65625 C 30.5625 32.796875 29.679688 32.839844 28.894531 32.839844 C 28.851562 32.839844 28.8125 32.839844 28.773438 32.839844 L 28.773438 34.878906 C 29.753906 34.878906 30.191406 36.535156 30.210938 36.605469 C 30.230469 36.675781 30.1875 36.746094 30.121094 36.765625 C 30.265625 37.277344 30.382812 37.792969 30.527344 38.148438 C 30.570312 38.253906 30.617188 38.378906 30.671875 38.523438 C 30.671875 38.523438 30.675781 38.523438 30.675781 38.523438 C 30.742188 38.5 30.820312 38.535156 30.84375 38.605469 C 30.859375 38.648438 32.328125 42.832031 35.324219 43.582031 C 35.394531 43.597656 35.4375 43.671875 35.421875 43.742188 C 35.417969 43.746094 35.417969 43.75 35.417969 43.753906 C 37.457031 44.417969 40.105469 44.429688 42.300781 43.898438 C 46.566406 40.253906 47.105469 35.875 47.136719 35.574219 C 47.136719 35.566406 47.136719 35.558594 47.136719 35.558594 C 47.164062 34.949219 47.160156 34.53125 47.160156 34.441406 C 47.160156 34.433594 47.164062 34.425781 47.164062 34.417969 C 47.105469 34.398438 47.066406 34.34375 47.070312 34.277344 Z M 31.425781 34.289062 C 30.816406 32.375 35.066406 32.253906 35.066406 32.253906 C 32.890625 32.609375 31.425781 34.289062 31.425781 34.289062 Z M 32.363281 40.265625 C 32.363281 40.265625 33.378906 42.125 35.472656 42.378906 C 35.472656 42.375 33.671875 43.546875 32.363281 40.265625 Z M 45.289062 38.027344 C 45.210938 38.578125 45.089844 39.085938 44.945312 39.503906 C 44.507812 40.761719 43.769531 41.730469 42.46875 42.269531 C 41.75 42.566406 40.859375 42.730469 39.75 42.746094 C 39.386719 42.75 39.023438 42.734375 38.671875 42.699219 C 35.992188 42.453125 33.671875 41.199219 32.898438 39.503906 C 32.816406 39.320312 32.734375 39.136719 32.664062 38.960938 C 32.070312 37.53125 31.847656 36.386719 31.929688 35.542969 C 31.941406 35.410156 31.964844 35.289062 31.988281 35.171875 C 31.988281 35.171875 32.445312 33.71875 35.335938 32.921875 C 36.023438 32.734375 36.769531 32.554688 37.535156 32.40625 C 38.03125 32.308594 38.535156 32.226562 39.03125 32.160156 C 40.992188 31.898438 42.875 31.925781 43.941406 32.589844 C 44.738281 33.089844 45.160156 34.160156 45.316406 35.363281 C 45.433594 36.238281 45.40625 37.183594 45.289062 38.027344 Z M 45.289062 38.027344"/></g><path fill="#CCD2EA" d="M 12.253906 38.027344 C 11.972656 36.019531 12.226562 33.449219 13.605469 32.589844 C 14.941406 31.753906 17.558594 31.925781 20.007812 32.40625 C 18.148438 32.886719 13.070312 34.511719 12.253906 38.027344 Z M 39.03125 32.15625 C 38.535156 32.222656 38.03125 32.308594 37.535156 32.40625 C 36.769531 32.554688 36.023438 32.734375 35.335938 32.921875 C 32.445312 33.714844 31.988281 35.171875 31.988281 35.171875 C 31.964844 35.289062 31.941406 35.410156 31.929688 35.542969 C 31.847656 36.386719 32.070312 37.527344 32.664062 38.960938 C 33.976562 35.402344 37.972656 32.796875 39.03125 32.15625 Z M 39.03125 32.15625"/><g clip-path="url(#c)"><path d="M 15.074219 42.269531 C 13.769531 41.730469 13.035156 40.761719 12.597656 39.503906 C 12.453125 39.085938 12.332031 38.578125 12.253906 38.027344 C 13.070312 34.511719 18.148438 32.886719 20.007812 32.40625 C 20.773438 32.554688 21.523438 32.734375 22.210938 32.921875 C 25.101562 33.714844 25.554688 35.171875 25.554688 35.171875 C 25.582031 35.289062 25.601562 35.410156 25.613281 35.542969 C 25.332031 35.917969 21.613281 40.75 15.074219 42.269531 Z M 45.316406 35.363281 C 45.160156 34.160156 44.738281 33.085938 43.941406 32.589844 C 42.875 31.921875 40.992188 31.898438 39.03125 32.15625 C 37.972656 32.796875 33.976562 35.402344 32.664062 38.960938 C 32.734375 39.136719 32.8125 39.316406 32.898438 39.503906 C 33.671875 41.199219 35.992188 42.453125 38.671875 42.699219 C 42.230469 40.378906 44.640625 36.53125 45.316406 35.363281 Z M 10.875 32.386719 C 10.875 32.386719 12.570312 30.949219 14.773438 30.929688 C 14.773438 30.929688 10.550781 30.398438 10.875 32.386719 Z M 31.425781 34.289062 C 31.425781 34.289062 32.890625 32.609375 35.066406 32.253906 C 35.066406 32.253906 30.816406 32.375 31.425781 34.289062 Z M 32.363281 40.265625 C 33.671875 43.546875 35.472656 42.378906 35.472656 42.378906 C 33.378906 42.125 32.363281 40.265625 32.363281 40.265625 Z M 11.679688 38.84375 C 11.722656 39.648438 11.636719 41.511719 12.679688 42.445312 C 13.71875 43.378906 16.792969 43.113281 16.792969 43.113281 C 16.792969 43.113281 14.628906 42.953125 13.4375 41.964844 C 12.242188 40.976562 11.679688 38.84375 11.679688 38.84375 Z M 11.679688 38.84375"/></g><g clip-path="url(#d)"><path fill="#050A30" d="M 53.195312 20.929688 C 52.792969 20.507812 51.792969 20.125 51.511719 19.980469 C 50.34375 19.375 49.15625 18.804688 47.957031 18.265625 C 44.410156 16.675781 40.761719 15.242188 36.898438 14.714844 C 33.167969 14.207031 29.382812 14.273438 25.632812 14.484375 C 22.601562 14.652344 19.582031 15.050781 16.609375 15.675781 C 13.789062 16.265625 10.539062 16.894531 7.941406 18.167969 C 7.011719 18.625 6.132812 19.183594 5.226562 19.691406 C 4.925781 19.863281 4.832031 20.136719 4.804688 20.484375 C 4.890625 20.554688 4.933594 20.605469 4.988281 20.625 C 6.316406 21.117188 7.449219 21.960938 8.636719 22.699219 C 8.871094 22.84375 8.933594 23.011719 8.800781 23.261719 C 8.632812 23.585938 8.511719 23.941406 8.3125 24.25 C 7.359375 25.738281 7.015625 27.570312 5.746094 28.886719 C 5.632812 29.003906 5.667969 29.371094 5.765625 29.554688 C 5.886719 29.792969 9.816406 27.695312 10.363281 27.46875 C 12.222656 26.6875 14.140625 26.066406 16.089844 25.570312 C 24.875 23.332031 34.097656 23.285156 42.796875 25.941406 C 44.546875 26.476562 46.269531 27.109375 47.957031 27.808594 C 49.304688 28.367188 50.667969 28.90625 51.878906 29.75 C 52.171875 29.953125 52.691406 29.738281 52.800781 29.390625 C 52.921875 29.007812 52.308594 28.058594 52.15625 27.699219 C 52.015625 27.375 50.195312 23.183594 50.042969 23.261719 C 50.238281 23.164062 50.371094 23.070312 50.523438 23.023438 C 51.429688 22.734375 52.203125 22.125 53.035156 21.671875 C 53.464844 21.4375 53.429688 21.175781 53.195312 20.929688"/></g><g fill="#FFF"><g><g><path d="M 0.84375 -3.453125 L -0.4375 -3.265625 L -0.5625 -4.203125 L 3.203125 -4.75 L 3.328125 -3.8125 L 2.03125 -3.625 L 2.5 -0.359375 L 1.3125 -0.1875 Z M 0.84375 -3.453125" transform="translate(21.409 22.295)"/></g></g></g><g fill="#FFF"><g><g><path d="M 7.0625 -4.296875 L 5.71875 -0.046875 L 4.4375 -0.03125 L 3.59375 -2.625 L 2.765625 -0.015625 L 1.484375 -0.015625 L 0.0625 -4.25 L 1.3125 -4.265625 L 2.171875 -1.546875 L 3.0625 -4.28125 L 4.171875 -4.28125 L 5.046875 -1.546875 L 5.921875 -4.296875 Z M 7.0625 -4.296875" transform="translate(24.973 21.656)"/></g></g></g><g fill="#FFF"><g><g><path d="M 2.515625 0.421875 C 2.066406 0.359375 1.679688 0.210938 1.359375 -0.015625 C 1.035156 -0.253906 0.796875 -0.550781 0.640625 -0.90625 C 0.484375 -1.257812 0.429688 -1.648438 0.484375 -2.078125 C 0.546875 -2.492188 0.695312 -2.859375 0.9375 -3.171875 C 1.1875 -3.484375 1.5 -3.707031 1.875 -3.84375 C 2.25 -3.988281 2.660156 -4.03125 3.109375 -3.96875 C 3.484375 -3.914062 3.816406 -3.796875 4.109375 -3.609375 C 4.410156 -3.429688 4.640625 -3.203125 4.796875 -2.921875 L 3.953125 -2.328125 C 3.734375 -2.703125 3.425781 -2.914062 3.03125 -2.96875 C 2.8125 -3 2.601562 -2.972656 2.40625 -2.890625 C 2.207031 -2.816406 2.046875 -2.695312 1.921875 -2.53125 C 1.796875 -2.363281 1.71875 -2.160156 1.6875 -1.921875 C 1.65625 -1.679688 1.675781 -1.460938 1.75 -1.265625 C 1.820312 -1.066406 1.941406 -0.90625 2.109375 -0.78125 C 2.285156 -0.65625 2.484375 -0.578125 2.703125 -0.546875 C 3.097656 -0.492188 3.453125 -0.613281 3.765625 -0.90625 L 4.421875 -0.140625 C 4.191406 0.0976562 3.910156 0.265625 3.578125 0.359375 C 3.242188 0.453125 2.890625 0.472656 2.515625 0.421875 Z M 2.515625 0.421875" transform="translate(31.904 21.68)"/></g></g></g><g fill="#797979"><g><g><path d="M 0.875 -1.421875 C 1.039062 -1.597656 1.242188 -1.6875 1.484375 -1.6875 C 1.734375 -1.6875 1.941406 -1.597656 2.109375 -1.421875 C 2.273438 -1.253906 2.359375 -1.046875 2.359375 -0.796875 C 2.359375 -0.523438 2.273438 -0.300781 2.109375 -0.125 C 1.941406 0.0390625 1.734375 0.125 1.484375 0.125 C 1.242188 0.125 1.039062 0.0390625 0.875 -0.125 C 0.707031 -0.300781 0.625 -0.523438 0.625 -0.796875 C 0.625 -1.046875 0.707031 -1.253906 0.875 -1.421875 Z M 0.875 -1.421875" transform="translate(354.55 46.44)"/></g></g></g><g fill="#797979"><g><g><path d="M 2.875 0 L 1.265625 0 L 1.265625 -9.578125 L 2.875 -9.578125 Z M 2.875 0" transform="translate(357.53 46.44)"/></g></g></g><g fill="#797979"><g><g><path d="M 1.921875 -8.234375 C 2.898438 -9.160156 4.101562 -9.625 5.53125 -9.625 C 6.96875 -9.625 8.175781 -9.160156 9.15625 -8.234375 C 10.132812 -7.304688 10.625 -6.15625 10.625 -4.78125 C 10.625 -3.414062 10.132812 -2.265625 9.15625 -1.328125 C 8.175781 -0.398438 6.96875 0.0625 5.53125 0.0625 C 4.101562 0.0625 2.898438 -0.398438 1.921875 -1.328125 C 0.953125 -2.265625 0.46875 -3.414062 0.46875 -4.78125 C 0.46875 -6.15625 0.953125 -7.304688 1.921875 -8.234375 Z M 5.5625 -8.171875 C 4.613281 -8.171875 3.800781 -7.84375 3.125 -7.1875 C 2.445312 -6.539062 2.109375 -5.738281 2.109375 -4.78125 C 2.109375 -3.832031 2.445312 -3.023438 3.125 -2.359375 C 3.800781 -1.703125 4.609375 -1.375 5.546875 -1.375 C 6.492188 -1.375 7.300781 -1.703125 7.96875 -2.359375 C 8.632812 -3.023438 8.96875 -3.832031 8.96875 -4.78125 C 8.96875 -5.738281 8.632812 -6.539062 7.96875 -7.1875 C 7.300781 -7.84375 6.5 -8.171875 5.5625 -8.171875 Z M 5.5625 -8.171875" transform="translate(361.66 46.44)"/></g></g></g></svg>